<svg id="Layer_1" data-name="Layer 1" xmlns="http://www.w3.org/2000/svg" viewBox="0 0 708.12 661.62"><defs><style>.cls-1,.cls-6{fill:#fff;}.cls-1{stroke:#010101;}.cls-1,.cls-2,.cls-3,.cls-4,.cls-5{stroke-miterlimit:10;}.cls-2,.cls-3{fill:#eb9b3b;}.cls-2,.cls-4,.cls-5{stroke:#fff;}.cls-3{stroke:#2d2d2c;}.cls-4{fill:#2d2d2c;}.cls-5{fill:#010101;stroke-width:0.5px;}</style></defs><title>icon_verse</title><path class="cls-1" d="M677.06,515.31" transform="translate(-4.28 -2.05)"/><path class="cls-1" d="M132.44,121" transform="translate(-4.28 -2.05)"/><path class="cls-2" d="M7.22,321.54s-18.86,372.57,283,339.56S662.75,505.47,702.83,321.54,646.24-8.58,488.26,3.21-28.15-36.87,7.22,321.54Z" transform="translate(-4.28 -2.05)"/><polygon class="cls-3" points="250.53 486.92 250.53 585.95 276.47 560.01 300.05 583.6 300.05 486.92 250.53 486.92"/><path class="cls-4" d="M186.16,88.65H456.4s18.77-1.31,18.77,18.29-3.76,339.62-3.76,339.62,6.26,23.51-20,23.51H204.93s-20-2.61-18.77-23.51,0-354,0-354Z" transform="translate(-4.28 -2.05)"/><path class="cls-4" d="M208.68,109.57H478.92s18.77-1.4,18.77,19.52-3.76,362.59-3.76,362.59,6.26,25.11-20,25.11H227.45s-20-2.79-18.77-25.11,0-377.93,0-377.93Z" transform="translate(-4.28 -2.05)"/><path class="cls-4" d="M185.47,90l25.8,20.78q.69,196,1.39,392l-26.49-32.07Q185.81,280.41,185.47,90Z" transform="translate(-4.28 -2.05)"/><path class="cls-2" d="M469,109.8s-9.66-6.84-7.25-10.94H198.62L211.9,109.8Z" transform="translate(-4.28 -2.05)"/><line class="cls-5" x1="199.77" y1="101.77" x2="458.86" y2="101.76"/><line class="cls-5" x1="202.19" y1="104.51" x2="461.28" y2="104.5"/><line class="cls-5" x1="197.46" y1="99.46" x2="456.55" y2="99.45"/><line class="cls-6" x1="191.25" y1="108.95" x2="455.84" y2="108.94"/></svg>