<svg id="Layer_1" data-name="Layer 1" xmlns="http://www.w3.org/2000/svg" viewBox="0 0 706.21 659.84"><defs><style>.cls-1{fill:#fff;stroke:#010101;}.cls-1,.cls-2,.cls-3,.cls-4{stroke-miterlimit:10;}.cls-2,.cls-3{fill:#eb9b3b;}.cls-2,.cls-4{stroke:#fff;}.cls-3{stroke:#2d2d2c;}.cls-4{fill:#2d2d2c;}</style></defs><title>icon_verse</title><path class="cls-1" d="M664.64,522.26" transform="translate(-4.48 -2.83)"/><path class="cls-2" d="M7.41,321.47S-11.4,693,289.61,660.1,661.17,504.89,701.14,321.47,644.7-7.76,487.14,4-27.86-36,7.41,321.47Z" transform="translate(-4.48 -2.83)"/><polygon class="cls-3" points="249.85 484.6 249.85 583.37 275.72 557.5 299.24 581.02 299.24 484.6 249.85 484.6"/><path class="cls-4" d="M185.87,88.2H455.38s18.71-1.3,18.71,18.24-3.74,338.7-3.74,338.7,6.24,23.45-20,23.45H204.58s-20-2.6-18.71-23.45,0-353,0-353Z" transform="translate(-4.48 -2.83)"/><path class="cls-4" d="M208.33,109.07h269.5s18.72-1.4,18.72,19.47-3.74,361.61-3.74,361.61,6.24,25-20,25H227s-20-2.78-18.71-25,0-376.91,0-376.91Z" transform="translate(-4.48 -2.83)"/><path class="cls-4" d="M185.18,89.59l25.73,20.72q.69,195.48,1.39,391l-26.43-32Z" transform="translate(-4.48 -2.83)"/></svg>